<svg width="24" height="24" viewBox="0 0 24 24" fill="none" xmlns="http://www.w3.org/2000/svg">
  <path d="M10.29 3.86L1.82 18C1.64547 18.3024 1.57298 18.6453 1.61211 18.9873C1.65124 19.3294 1.80051 19.6548 2.04013 19.9155C2.27975 20.1762 2.5991 20.3602 2.95671 20.4426C3.31432 20.525 3.69452 20.5019 4.04 20.376L12 17.77L19.96 20.376C20.3055 20.5019 20.6857 20.525 21.0433 20.4426C21.4009 20.3602 21.7202 20.1762 21.9599 19.9155C22.1995 19.6548 22.3488 19.3294 22.3879 18.9873C22.427 18.6453 22.3545 18.3024 22.18 18L13.71 3.86C13.5318 3.56631 13.2807 3.32312 12.9812 3.15447C12.6817 2.98582 12.3438 2.89725 12 2.89725C11.6562 2.89725 11.3183 2.98582 11.0188 3.15447C10.7193 3.32312 10.4682 3.56631 10.29 3.86Z" fill="currentColor"/>
  <path d="M12 9V13" stroke="white" stroke-width="2" stroke-linecap="round"/>
  <path d="M12 17H12.01" stroke="white" stroke-width="2" stroke-linecap="round"/>
</svg>
